		<svg
				xmlns:xlink="http://www.w3.org/1999/xlink"
				xmlns="http://www.w3.org/2000/svg"
				width="320"
				height="72.97174540925444"
				viewBox="0 0 320 72.97174540925444"
				class="css-1j8o68f">
				<defs id="SvgjsDefs1292">
					<linearGradient id="SvgjsLinearGradient1297">
						<stop id="SvgjsStop1298" stop-color="#147d6c" offset="0"></stop>
						<stop id="SvgjsStop1299" stop-color="#1effff" offset="1"></stop>
					</linearGradient>
					<linearGradient id="SvgjsLinearGradient1297">
						<stop id="SvgjsStop1298" stop-color="#147d6c" offset="0"></stop>
						<stop id="SvgjsStop1299" stop-color="#1effff" offset="1"></stop>
					</linearGradient>
					<linearGradient id="SvgjsLinearGradient1297">
						<stop id="SvgjsStop1298" stop-color="#147d6c" offset="0"></stop>
						<stop id="SvgjsStop1299" stop-color="#1effff" offset="1"></stop>
					</linearGradient>
				</defs>
				<g
					id="SvgjsG1293"
					featurekey="symbolFeature-0"
					transform="matrix(0.14158275241398852,0,0,0.14158275241398852,6.6685501231374165,-19.580892930549528)"
					fill="#3FC1C9">
					<g xmlns="http://www.w3.org/2000/svg" fill="#3FC1C9">
						<path
							d="M174.1,415.6c71.5,0,129.8-58.2,129.8-129.8s-58.2-129.8-129.8-129.8S44.4,214.3,44.4,285.9S102.6,415.6,174.1,415.6z    M174.1,197.4c48.8,0,88.5,39.7,88.5,88.5c0,48.8-39.7,88.5-88.5,88.5s-88.5-39.7-88.5-88.5C85.6,237.1,125.3,197.4,174.1,197.4z"
							fill="#3FC1C9"></path>
						<path
							d="M326,395.6c-9.2,6.7-11.3,19.5-4.7,28.8c21.6,30,33,65.4,33,102.4c0,50.6-21.6,65.7-42.6,73.8   c-31,11.9-78.4,11.9-128.5,11.8l-9,0l-9,0c-50.1,0-97.5,0.1-128.5-11.8c-21.1-8.1-42.6-23.2-42.6-73.8c0-38.6,12.4-75.3,35.8-106.1   c6.9-9.1,5.1-22-3.9-28.9c-9.1-6.9-22-5.1-28.9,3.9c-28.9,38.1-44.2,83.4-44.2,131.1c0,29.9,6,53.6,18.3,72.7   c11.4,17.7,28.6,31.1,50.9,39.6c38.2,14.6,86.9,14.6,143.3,14.6l9,0l9,0c3.1,0,6.1,0,9.1,0c52.6,0,98.1-0.7,134.2-14.6   c22.3-8.6,39.4-21.9,50.9-39.6c12.3-19,18.3-42.8,18.3-72.7c0-45.6-14.1-89.4-40.8-126.5C348.1,391,335.2,388.9,326,395.6z"
							fill="#3FC1C9"></path>
						<path
							d="M457.8,343.3c56.5,0,102.5-46,102.5-102.5c0-56.5-46-102.5-102.5-102.5s-102.5,46-102.5,102.5   C355.4,297.4,401.3,343.3,457.8,343.3z M457.8,179.6c33.8,0,61.2,27.5,61.2,61.2s-27.5,61.2-61.2,61.2s-61.2-27.5-61.2-61.2   S424.1,179.6,457.8,179.6z"
							fill="#3FC1C9"></path>
						<path
							d="M627.8,323.7c-6.7-9.2-19.5-11.4-28.8-4.7c-9.2,6.7-11.3,19.5-4.7,28.8c15.6,21.6,23.8,47.2,23.8,73.8   c0,34.7-13.8,44.8-28.7,50.5c-22.4,8.6-57.4,8.5-94.5,8.5l-6.8,0l-6.8,0c-7.5,0-14.6,0-21.6,0c-0.1,0-0.1,0-0.2,0   c-11.3,0-20.5,9.1-20.6,20.5c-0.1,11.4,9.1,20.7,20.5,20.8c5,0,10.1,0.1,15.2,0.1c2.2,0,4.4,0,6.7,0l6.7,0l6.7,0   c41,0,79.8,0.1,109.3-11.3c36.6-14,55.2-44,55.2-89C659.3,386.2,648.4,352.4,627.8,323.7z"
							fill="#3FC1C9"></path>
					</g>
				</g>
				<g
					id="SvgjsG1294"
					featurekey="nameFeature-0"
					transform="matrix(1.4850015657594025,0,0,1.4850015657594025,119.10899884811317,0.11018737222972597)"
					fill='url("#SvgjsLinearGradient1297")'>
					<path
						d="M15.24 9.239999999999998 c1.56 0 4.08 0.24 7.72 2.04 l-3.76 3.16 c-1.04 -1.24 -3.92 -4.08 -6.76 -4.08 c-2.96 0 -3.72 3.04 -3.72 6.56 l0 3.68 l5.92 0 l-0.2 0.96 l-5.72 0 l0 14.56 c0 2.16 0.28 3.28 2.68 3.72 l0 0.16 l-8.4 0 l0.64 -2.48 l0 -14.2 c0 -1.84 -1.16 -1.76 -3.04 -1.76 l0.2 -0.96 l2.84 0 l0 -0.96 c0 -6.52 5.8 -10.4 11.6 -10.4 z M37.76 38.72 c0.56 0.36 1.6 0.64 2.24 0.72 l0 0.16 l-7.32 0.6 l0 -3.48 c-1.88 1.48 -5.04 3.56 -8.72 3.56 c-2.4 0 -5.8 -1.24 -5.8 -7.28 l0 -8.6 c0 -2.16 -0.36 -2.92 -2.16 -3.72 l0 -0.08 l7.48 0 l-0.24 2.76 l0 9.56 c0 4.48 1.6 5.48 3.36 5.48 c2.56 0 4.48 -1.36 6.08 -2.64 l0 -11.36 c0 -2.16 -0.36 -2.92 -2.16 -3.72 l0 -0.08 l7.48 0 l-0.24 2.76 l0 15.36 z M69.84 40 l0.24 -2.76 l0 -9.52 c0 -4.44 -1.28 -5.52 -3.08 -5.52 c-2.08 0 -3.96 1.68 -5.4 2.84 c0.16 0.72 0.24 1.6 0.24 2.6 l0 8.64 c0 2.16 0.36 2.92 1.56 3.72 l-6.88 0 l0.24 -2.76 l0 -9.52 c0 -4.44 -1.28 -5.52 -3.08 -5.52 c-1.96 0 -3.68 1.48 -5.16 2.6 l0 11.48 c0 2.16 0.36 2.92 1.56 3.72 l-6.88 0 l0.24 -2.76 l0 -15.36 c-0.56 -0.36 -1.6 -0.64 -2.44 -0.72 l0 -0.16 l7.72 -0.6 l-0.2 2.96 l0 0.52 c1.72 -1.36 4.44 -3.52 7.64 -3.52 c1.84 0 4.24 0.76 5.24 3.88 c1.56 -1.2 4.56 -3.88 8.08 -3.88 c2.4 0 5.68 1.24 5.68 7.28 l0 8.64 c0 2.16 0.36 2.92 1.56 3.72 l-6.88 0 z M91.2 20.36 c6.28 0 10.28 3.84 10.28 9.24 c0 5.52 -4.28 10.68 -13.16 10.68 c-2.16 0 -5.64 -0.32 -9.12 -1.36 l0 -0.04 c1.44 -0.36 1.92 -1 1.92 -3.6 l0 -21.56 c0 -1.6 -1.04 -1.4 -3.6 -0.64 l0 -0.24 l8.88 -4.16 l-0.2 1.8 l0 10.96 c1.28 -0.64 2.96 -1.08 5 -1.08 z M90.64 39.48 c3.96 0 5.68 -2.68 5.68 -7.36 c0 -5.48 -2.48 -10.8 -7.12 -10.8 c-1.16 0 -2.16 0.32 -3 0.84 l0 15.68 c1.2 1.04 2.64 1.64 4.44 1.64 z M111.36 36.12 c0 2.16 0.28 3.28 2.28 3.72 l0 0.16 l-7.72 0 l0.36 -2.48 l0 -23.8 c0 -1.6 -1.04 -1.4 -3.6 -0.64 l0 -0.24 l8.88 -4.16 l-0.2 1.8 l0 25.64 z M135.07999999999998 36.08 l0.2 0.16 c-1.2 2.24 -4.44 4.04 -8.68 4.04 c-6.4 0 -10.76 -3.96 -10.76 -9.68 c0 -6.44 5.56 -10.24 11.52 -10.24 c8.64 0 9.36 8.52 4.24 8.52 l-10.56 0 c0.08 5.68 3.32 9.44 8.12 9.44 c1.92 0 4.68 -0.6 5.92 -2.24 z M126.03999999999999 21 c-2.72 0 -4.84 2.72 -5 7.2 l8.04 -0.08 c2.72 -0.04 1.6 -7.12 -3.04 -7.12 z"
						fill='#000000'></path>
				</g>
			</svg>